<?xml version="1.0" standalone="no"?>
<!DOCTYPE svg PUBLIC "-//W3C//DTD SVG 20010904//EN"
 "http://www.w3.org/TR/2001/REC-SVG-20010904/DTD/svg10.dtd">
<svg version="1.0" xmlns="http://www.w3.org/2000/svg"
 width="500.000000pt" height="500.000000pt" viewBox="0 0 500.000000 500.000000"
 preserveAspectRatio="xMidYMid meet">

<g transform="translate(0.000000,500.000000) scale(0.100000,-0.100000)"
fill="#000000" stroke="none">
<path d="M0 2500 l0 -2500 2500 0 2500 0 0 2500 0 2500 -2500 0 -2500 0 0
-2500z m3656 1561 c30 -1 88 -60 100 -102 8 -25 8 -54 2 -93 -14 -77 -9 -86
50 -86 26 0 52 -4 58 -9 5 -5 27 -12 49 -16 l40 -6 -25 21 c-14 11 -34 29 -45
39 -11 9 -35 26 -52 36 -18 11 -33 23 -33 27 0 14 45 9 68 -8 12 -8 22 -12 22
-8 0 16 -42 94 -51 94 -17 0 -9 29 12 43 18 13 23 13 45 -8 14 -13 36 -26 51
-30 43 -10 94 -57 114 -102 23 -55 79 -95 181 -129 84 -28 118 -51 118 -82 0
-11 9 -27 20 -37 25 -22 26 -51 3 -58 -10 -3 -44 -15 -76 -27 -38 -14 -70 -20
-90 -16 -75 14 -152 14 -185 0 -19 -8 -43 -14 -53 -14 -27 0 -59 -40 -59 -74
0 -17 -12 -65 -25 -106 -14 -41 -25 -81 -25 -90 0 -9 -13 -26 -29 -38 -20 -14
-31 -33 -35 -59 -16 -110 -18 -115 -67 -164 -27 -27 -49 -54 -49 -59 0 -6 9
-36 20 -67 11 -32 20 -72 20 -89 0 -24 8 -39 32 -59 45 -38 78 -103 67 -133
-17 -45 -80 -111 -117 -123 -20 -7 -56 -29 -80 -49 -23 -21 -58 -45 -77 -54
-24 -12 -40 -30 -54 -61 -39 -89 -153 -227 -216 -262 -25 -14 -32 -111 -12
-175 14 -46 14 -47 -9 -63 -22 -14 -27 -14 -46 0 -13 8 -30 15 -40 15 -10 0
-18 6 -18 14 0 7 -9 16 -20 19 -13 3 -18 10 -14 21 9 23 -22 20 -46 -4 -11
-11 -20 -26 -20 -34 0 -8 -16 -31 -35 -52 -19 -22 -35 -45 -35 -51 0 -7 -7
-13 -16 -13 -23 0 -74 -30 -107 -63 -16 -16 -31 -26 -34 -23 -4 3 -12 -3 -20
-14 -8 -11 -20 -20 -28 -20 -8 0 -29 -18 -46 -40 -18 -22 -37 -40 -43 -40 -16
0 -36 -49 -36 -86 0 -32 -13 -44 -50 -44 -14 0 -23 -16 -38 -63 -11 -34 -23
-78 -27 -97 -13 -62 -45 -78 -78 -40 -10 12 -22 18 -27 15 -6 -3 -10 5 -10 19
0 17 -5 26 -16 26 -13 0 -14 3 -4 15 10 12 9 16 -4 21 -20 8 -21 44 -2 89 13
30 13 37 1 48 -9 9 -10 18 -4 24 6 6 5 14 -4 21 -8 7 -12 23 -9 37 6 32 80 78
128 79 19 1 39 7 46 14 7 7 20 12 30 12 33 0 139 126 121 144 -4 3 -1 6 6 6 7
0 10 4 7 9 -4 5 5 22 18 38 13 15 33 47 44 70 12 23 30 48 40 55 11 7 27 28
36 46 11 21 24 32 38 32 42 0 104 31 121 60 9 15 17 48 17 73 0 36 5 48 24 60
46 30 71 62 90 112 10 28 26 71 35 97 9 25 22 52 28 60 14 17 25 100 15 113
-4 6 -20 11 -37 11 -40 2 -105 41 -105 64 0 11 -6 23 -14 27 -38 23 -43 130
-8 183 9 14 15 35 13 47 -1 14 5 26 18 33 16 8 20 17 15 36 -8 30 34 74 72 74
20 0 24 5 24 29 0 16 5 31 12 33 8 3 12 41 14 118 2 62 8 118 13 123 6 6 11
28 11 48 0 29 -11 50 -59 110 -51 64 -66 76 -105 87 -26 6 -59 12 -75 12 -16
0 -34 6 -40 14 -12 14 -27 17 -161 34 -41 5 -104 20 -140 34 -36 14 -93 34
-128 45 l-63 20 -15 -23 c-8 -13 -21 -35 -29 -49 -8 -14 -26 -27 -40 -31 -13
-3 -27 -15 -30 -25 -4 -10 -18 -22 -33 -25 -15 -4 -34 -12 -42 -19 -8 -6 -23
-15 -34 -19 -17 -6 -18 -3 -13 31 11 68 93 193 127 193 6 0 29 9 52 20 39 19
50 19 217 9 97 -5 192 -15 211 -21 43 -14 173 -11 217 4 24 9 41 9 71 -1 35
-12 45 -11 101 9 50 19 66 21 86 12 32 -15 75 0 75 26 0 10 3 22 7 26 4 3 8
28 10 55 3 53 36 121 59 121 8 0 14 6 14 13 0 14 69 33 110 30 14 -1 34 -2 46
-2z m-2813 -1045 c55 -23 71 -50 75 -127 5 -79 -13 -140 -56 -191 -36 -42 -79
-58 -162 -58 -82 0 -123 17 -145 60 -17 34 -20 128 -4 183 13 49 63 105 114
128 48 22 133 24 178 5z m426 -4 c78 -39 92 -157 34 -270 -40 -79 -82 -102
-189 -102 -92 0 -125 17 -150 76 -44 106 27 273 128 303 55 16 140 13 177 -7z
m-719 -12 c0 -18 -7 -20 -64 -20 l-64 0 -11 -44 c-16 -65 -16 -66 39 -66 50 0
55 -4 44 -34 -4 -12 -20 -16 -55 -16 -31 0 -51 -5 -54 -12 -2 -7 -11 -48 -20
-90 l-17 -78 -64 0 c-35 0 -64 3 -64 8 0 9 69 331 76 355 5 15 20 17 130 17
117 0 124 -1 124 -20z m1170 1 c0 -17 -8 -20 -52 -23 l-53 -3 -35 -167 -35
-168 -66 0 -66 0 33 153 c18 83 33 160 34 170 0 14 -9 17 -45 17 -48 0 -48 0
-39 24 5 14 29 16 165 16 151 0 159 -1 159 -19z m304 -2 c38 -30 37 -91 -2
-127 l-28 -25 23 -23 c43 -43 23 -122 -41 -160 -25 -15 -56 -20 -163 -22
l-131 -4 29 134 c15 73 34 159 40 191 l12 57 117 0 c104 0 120 -2 144 -21z
m331 -11 c6 -39 35 -311 35 -333 0 -12 -14 -15 -70 -15 -70 0 -70 0 -70 28 0
63 -8 72 -64 72 l-53 0 -23 -50 c-20 -43 -28 -50 -52 -50 l-28 0 24 53 c13 28
52 114 87 190 l64 137 72 0 72 0 6 -32z m275 19 c0 -7 -13 -75 -30 -150 -16
-76 -30 -144 -30 -152 0 -12 14 -15 59 -15 57 0 58 -1 53 -25 l-4 -25 -128 0
-128 0 29 133 c16 72 34 158 40 190 l12 57 63 0 c46 0 64 -4 64 -13z m295 1
c-6 -20 -65 -298 -65 -308 0 -6 27 -10 61 -10 52 0 60 -2 55 -16 -3 -9 -6 -20
-6 -25 0 -11 -250 -12 -250 -1 -1 4 16 89 37 190 l38 182 67 0 c49 0 66 -3 63
-12z m-636 -486 c78 -39 92 -157 34 -270 -40 -79 -82 -102 -189 -102 -92 0
-125 17 -150 76 -44 106 27 273 128 303 55 16 140 13 177 -7z m-486 -59 c8
-38 21 -94 28 -125 6 -32 15 -58 19 -58 4 0 17 51 30 113 29 140 27 137 56
137 31 0 31 1 -15 -205 l-37 -170 -71 -3 -71 -3 -33 136 c-20 82 -36 128 -40
118 -3 -10 -17 -71 -30 -135 -23 -117 -24 -118 -51 -118 -24 0 -28 3 -23 23 7
30 75 351 75 354 0 2 33 3 74 3 l74 0 15 -67z m937 48 c0 -17 -8 -20 -52 -23
l-53 -3 -35 -167 -35 -168 -66 0 -66 0 33 153 c18 83 33 160 34 170 0 14 -9
17 -45 17 -48 0 -48 0 -39 24 5 14 29 16 165 16 151 0 159 -1 159 -19z m300
12 c-1 -23 -21 -32 -75 -35 -64 -3 -61 -1 -78 -85 l-6 -33 49 0 c43 0 50 -3
50 -20 0 -18 -7 -20 -54 -20 l-54 0 -14 -62 -13 -63 57 -3 c54 -3 58 -5 58
-27 l0 -25 -129 0 -129 0 29 133 c16 72 34 158 40 190 l12 57 128 0 c71 0 129
-3 129 -7z m598 -929 c69 -34 112 -103 112 -181 0 -28 -5 -55 -10 -58 -6 -4
-8 -10 -5 -14 2 -5 -13 -5 -34 -1 -37 7 -42 5 -75 -33 -34 -38 -35 -42 -21
-63 14 -21 13 -23 -8 -30 -68 -22 -161 8 -211 66 -39 47 -31 56 10 10 l36 -39
33 22 c20 13 30 26 26 32 -5 5 -14 26 -20 46 -10 31 -18 38 -47 43 -40 8 -54
2 -54 -24 0 -25 -16 -34 -24 -14 -8 21 -8 98 0 119 5 13 8 14 15 3 6 -9 9 -8
9 7 0 11 16 37 36 58 20 20 32 37 28 38 -5 0 9 9 31 20 56 26 111 24 173 -7z"/>
<path d="M732 2965 c-33 -42 -56 -124 -56 -205 -1 -73 0 -75 23 -75 32 0 65
65 81 155 23 125 -1 185 -48 125z"/>
<path d="M1162 2983 c-27 -11 -64 -112 -77 -210 -11 -85 24 -121 63 -65 39 54
73 223 52 261 -11 21 -16 23 -38 14z"/>
<path d="M1885 2968 c-10 -27 -24 -103 -20 -106 2 -3 15 -2 28 2 48 12 63 116
16 116 -11 0 -22 -6 -24 -12z"/>
<path d="M1840 2763 c-7 -32 -15 -63 -17 -70 -8 -20 42 -16 61 6 23 25 32 87
16 106 -27 33 -48 18 -60 -42z"/>
<path d="M2188 2860 l-35 -75 39 -3 c22 -2 41 -2 43 0 2 2 0 37 -4 78 l-8 75
-35 -75z"/>
<path d="M2182 2493 c-27 -11 -64 -112 -77 -210 -11 -85 24 -121 63 -65 39 54
73 223 52 261 -11 21 -16 23 -38 14z"/>
<path d="M3558 1578 l-47 -20 6 -49 c5 -45 3 -53 -23 -82 l-29 -32 31 28 c32
29 72 35 118 17 14 -5 25 -6 24 -2 -1 4 6 22 15 40 21 39 17 59 -21 95 l-27
26 -47 -21z"/>
</g>
</svg>
