<?xml version="1.0" standalone="no"?>
<!DOCTYPE svg PUBLIC "-//W3C//DTD SVG 20010904//EN"
 "http://www.w3.org/TR/2001/REC-SVG-20010904/DTD/svg10.dtd">
<svg version="1.0" xmlns="http://www.w3.org/2000/svg"
 width="48.000000pt" height="48.000000pt" viewBox="0 0 48.000000 48.000000"
 preserveAspectRatio="xMidYMid meet">

<g transform="translate(0.000000,48.000000) scale(0.100000,-0.100000)"
fill="#000000" stroke="none">
<path d="M129 473 c-92 -7 -93 -9 -97 -242 -3 -177 -1 -199 14 -212 13 -11 57
-14 200 -14 100 0 186 3 190 8 4 4 2 13 -4 19 -16 16 -15 49 3 72 12 15 15 52
15 157 0 144 -7 181 -37 198 -22 11 -202 20 -284 14z m211 -103 c0 -19 -7 -20
-105 -20 -98 0 -105 1 -105 20 0 19 7 20 105 20 98 0 105 -1 105 -20z m-90
-100 c0 -18 -7 -20 -60 -20 -53 0 -60 2 -60 20 0 18 7 20 60 20 53 0 60 -2 60
-20z m140 -210 c0 -19 -7 -20 -165 -20 -158 0 -165 1 -165 20 0 19 7 20 165
20 158 0 165 -1 165 -20z"/>
</g>
</svg>
