<?xml version="1.0" standalone="no"?>
<!DOCTYPE svg PUBLIC "-//W3C//DTD SVG 20010904//EN"
 "http://www.w3.org/TR/2001/REC-SVG-20010904/DTD/svg10.dtd">
<svg version="1.0" xmlns="http://www.w3.org/2000/svg"
 width="500.000000pt" height="500.000000pt" viewBox="0 0 500.000000 500.000000"
 preserveAspectRatio="xMidYMid meet">

<g transform="translate(0.000000,500.000000) scale(0.100000,-0.100000)"
fill="#000000" stroke="none">
<path d="M3545 4054 c-21 -6 -41 -16 -43 -22 -2 -7 -10 -12 -18 -12 -21 0 -56
-77 -57 -127 0 -24 -4 -46 -9 -49 -4 -3 -8 -14 -8 -25 0 -26 -44 -43 -71 -28
-21 11 -122 -12 -134 -31 -3 -5 -24 -2 -50 8 -36 13 -51 14 -77 5 -44 -16
-185 -19 -223 -5 -16 6 -109 16 -205 22 -167 10 -177 9 -215 -10 -21 -11 -44
-20 -50 -20 -16 0 -78 -68 -103 -113 -12 -21 -25 -56 -28 -78 -6 -36 -5 -39
12 -33 11 4 26 13 34 19 8 7 27 15 42 19 15 3 29 15 33 25 3 11 19 22 34 26
18 4 33 16 40 33 7 15 19 36 26 48 l14 21 63 -19 c35 -11 74 -26 88 -33 37
-19 97 -35 170 -46 117 -16 161 -26 172 -37 7 -7 26 -12 43 -12 37 0 135 -28
135 -38 0 -4 22 -34 50 -67 43 -52 50 -66 50 -106 0 -25 -4 -49 -9 -55 -12
-13 -21 -118 -11 -134 5 -7 3 -21 -3 -31 -8 -13 -7 -22 3 -35 13 -15 12 -18
-8 -32 -12 -8 -22 -25 -22 -38 0 -17 -6 -24 -19 -24 -11 0 -34 -12 -51 -26
-25 -22 -30 -32 -25 -54 5 -23 2 -30 -15 -35 -18 -6 -21 -12 -16 -35 3 -18 0
-33 -9 -40 -26 -22 -38 -88 -25 -136 7 -24 18 -45 25 -48 8 -3 15 -15 17 -28
4 -29 73 -70 111 -65 22 3 29 -1 33 -20 7 -26 0 -65 -21 -108 -7 -16 -26 -61
-40 -100 -38 -100 -56 -135 -69 -135 -30 -1 -57 -40 -63 -92 -9 -76 -32 -104
-106 -126 -40 -13 -66 -27 -73 -40 -6 -12 -22 -32 -37 -46 -14 -13 -37 -46
-51 -74 -14 -28 -30 -52 -35 -54 -5 -1 -12 -16 -15 -31 -10 -55 -100 -157
-139 -157 -8 0 -20 -7 -27 -15 -7 -8 -22 -14 -34 -13 -29 3 -138 -52 -133 -66
3 -6 0 -18 -4 -28 -6 -11 -4 -18 5 -21 9 -4 12 -14 9 -25 -2 -11 0 -22 5 -26
6 -4 5 -20 -4 -43 -18 -51 -17 -80 2 -87 13 -5 14 -9 4 -21 -10 -12 -9 -15 4
-15 10 0 16 -9 16 -25 0 -14 5 -25 12 -25 6 0 21 -9 33 -20 30 -28 53 -16 66
34 22 85 43 151 52 164 5 6 20 12 32 12 29 0 48 24 40 49 -3 11 1 30 10 44 8
13 12 27 8 32 -5 4 -3 5 4 1 7 -4 29 12 54 39 23 25 48 45 56 45 7 0 16 7 19
15 4 8 10 15 15 15 5 0 35 20 67 45 31 25 65 45 75 45 9 0 17 6 17 13 0 6 16
28 35 47 19 19 35 41 35 50 0 19 40 60 58 60 7 0 12 -8 12 -19 0 -11 9 -21 21
-24 12 -3 18 -10 14 -16 -4 -7 3 -11 16 -11 12 0 31 -7 40 -16 17 -15 20 -15
45 0 17 12 23 23 19 34 -17 42 -28 121 -21 154 5 27 16 42 39 57 65 40 160
159 201 254 17 38 32 56 48 60 13 4 52 29 87 57 34 27 70 50 80 50 23 0 98 78
111 117 10 28 8 37 -15 77 -14 24 -37 52 -50 60 -17 11 -25 26 -25 46 0 16 -9
53 -20 82 -20 53 -27 118 -12 118 4 1 20 11 35 24 30 24 81 154 71 180 -3 7 9
25 27 40 20 17 35 41 40 64 4 20 15 62 24 92 10 30 19 71 22 90 6 40 29 70 53
70 10 0 33 6 51 14 33 13 106 13 190 0 34 -6 105 12 157 38 27 14 29 48 2 71
-11 9 -20 26 -20 37 0 24 -29 44 -101 69 -118 40 -179 85 -199 146 -11 32 -70
80 -112 90 -14 4 -35 15 -47 26 -25 23 -44 24 -62 3 -11 -14 -11 -18 1 -28 12
-9 32 -43 58 -99 2 -5 -10 -2 -26 7 -57 29 -89 11 -34 -18 15 -9 47 -34 72
-56 l45 -41 -40 7 c-22 4 -41 11 -43 15 -2 5 -28 9 -57 9 -30 0 -56 3 -58 8
-2 4 -1 36 4 72 5 44 4 76 -4 100 -15 44 -69 100 -99 101 -13 0 -34 1 -48 3
-14 1 -43 -3 -65 -10z"/>
<path d="M665 3011 c-51 -23 -101 -79 -114 -128 -16 -55 -13 -149 4 -183 22
-43 63 -60 145 -60 83 0 126 16 162 58 43 51 61 112 56 191 -4 77 -20 104 -75
127 -45 19 -130 17 -178 -5z m123 -66 c5 -57 -15 -163 -42 -215 -17 -35 -28
-45 -47 -45 -23 0 -24 2 -23 75 0 81 23 163 56 205 29 37 52 29 56 -20z"/>
<path d="M1092 3019 c-101 -30 -172 -197 -128 -303 25 -59 58 -76 150 -76 107
0 149 23 189 102 58 113 44 231 -34 270 -37 20 -122 23 -177 7z m108 -50 c21
-38 -13 -207 -52 -261 -39 -56 -74 -20 -63 65 13 98 50 199 77 210 22 9 27 7
38 -14z"/>
<path d="M296 3003 c-7 -24 -76 -346 -76 -355 0 -5 29 -8 64 -8 l64 0 17 78
c9 42 18 83 20 90 3 7 23 12 54 12 35 0 51 4 55 16 11 30 6 34 -44 34 -55 0
-55 1 -39 66 l11 44 64 0 c57 0 64 2 64 20 0 19 -7 20 -124 20 -110 0 -125 -2
-130 -17z"/>
<path d="M1396 3004 c-9 -24 -9 -24 39 -24 36 0 45 -3 45 -17 -1 -10 -16 -87
-34 -170 l-33 -153 66 0 66 0 35 168 35 167 53 3 c44 3 52 6 52 23 0 18 -8 19
-159 19 -136 0 -160 -2 -165 -16z"/>
<path d="M1751 2963 c-6 -32 -25 -118 -40 -191 l-29 -134 131 4 c107 2 138 7
163 22 64 38 84 117 41 160 l-23 23 28 25 c39 36 40 97 2 127 -24 19 -40 21
-144 21 l-117 0 -12 -57z m185 -8 c9 -36 -14 -84 -43 -91 -13 -4 -26 -5 -28
-2 -4 3 10 79 20 106 8 23 44 14 51 -13z m-36 -150 c16 -19 7 -81 -16 -106
-19 -22 -69 -26 -61 -6 2 7 10 38 17 70 12 60 33 75 60 42z"/>
<path d="M2141 2883 c-35 -76 -74 -162 -87 -190 l-24 -53 28 0 c24 0 32 7 52
50 l23 50 53 0 c56 0 64 -9 64 -72 0 -28 0 -28 70 -28 56 0 70 3 70 15 0 22
-29 294 -35 333 l-6 32 -72 0 -72 0 -64 -137z m94 -101 c-2 -2 -21 -2 -43 0
l-39 3 35 75 35 75 8 -75 c4 -41 6 -76 4 -78z"/>
<path d="M2491 2963 c-6 -32 -24 -118 -40 -190 l-29 -133 128 0 128 0 4 25 c5
24 4 25 -53 25 -45 0 -59 3 -59 15 0 8 14 76 30 152 17 75 30 143 30 150 0 9
-18 13 -64 13 l-63 0 -12 -57z"/>
<path d="M2757 2838 c-21 -101 -38 -186 -37 -190 0 -11 250 -10 250 1 0 5 3
16 6 25 5 14 -3 16 -55 16 -34 0 -61 4 -61 10 0 10 59 288 65 308 3 9 -14 12
-63 12 l-67 0 -38 -182z"/>
<path d="M2112 2529 c-101 -30 -172 -197 -128 -303 25 -59 58 -76 150 -76 107
0 149 23 189 102 58 113 44 231 -34 270 -37 20 -122 23 -177 7z m108 -50 c21
-38 -13 -207 -52 -261 -39 -56 -74 -20 -63 65 13 98 50 199 77 210 22 9 27 7
38 -14z"/>
<path d="M1640 2527 c0 -3 -68 -324 -75 -354 -5 -20 -1 -23 23 -23 27 0 28 1
51 118 13 64 27 125 30 135 4 10 20 -36 40 -118 l33 -136 71 3 71 3 37 170
c46 206 46 205 15 205 -29 0 -27 3 -56 -137 -13 -62 -26 -113 -30 -113 -4 0
-13 26 -19 58 -7 31 -20 87 -28 125 l-15 67 -74 0 c-41 0 -74 -1 -74 -3z"/>
<path d="M2416 2514 c-9 -24 -9 -24 39 -24 36 0 45 -3 45 -17 -1 -10 -16 -87
-34 -170 l-33 -153 66 0 66 0 35 168 35 167 53 3 c44 3 52 6 52 23 0 18 -8 19
-159 19 -136 0 -160 -2 -165 -16z"/>
<path d="M2771 2473 c-6 -32 -24 -118 -40 -190 l-29 -133 129 0 129 0 0 25 c0
22 -4 24 -58 27 l-57 3 13 63 14 62 54 0 c47 0 54 2 54 20 0 17 -7 20 -50 20
l-49 0 6 33 c17 84 14 82 78 85 54 3 74 12 75 35 0 4 -58 7 -129 7 l-128 0
-12 -57z"/>
<path d="M3490 1608 c-37 -10 -120 -89 -120 -114 0 -9 -4 -13 -9 -10 -19 12
-30 -105 -12 -133 10 -15 15 -8 24 30 6 25 8 26 47 16 33 -9 42 -17 51 -47 6
-19 16 -40 20 -46 6 -8 -1 -16 -21 -24 -16 -7 -30 -16 -30 -21 0 -4 -18 11
-40 34 -22 23 -40 36 -40 29 0 -27 66 -83 123 -102 48 -17 65 -19 97 -10 45
12 48 19 21 44 -19 17 -18 18 20 53 30 27 49 36 78 37 30 1 37 -2 34 -14 -2
-8 1 -6 8 4 6 11 12 43 12 71 0 73 -35 140 -92 177 -25 15 -46 26 -49 24 -9
-10 54 -76 73 -77 13 -1 15 -3 5 -5 -8 -3 -25 -22 -38 -44 -18 -33 -27 -39
-45 -35 -12 3 -37 7 -54 8 -29 2 -33 5 -33 32 0 17 -3 39 -6 51 -4 17 2 24 38
39 55 24 55 24 38 35 -19 12 -54 11 -100 -2z"/>
</g>
</svg>
